<?xml version="1.0" encoding="iso-8859-1"?>
<!-- Generator: Adobe Illustrator 19.0.0, SVG Export Plug-In . SVG Version: 6.00 Build 0)  -->
<svg xmlns="http://www.w3.org/2000/svg" xmlns:xlink="http://www.w3.org/1999/xlink" version="1.1" id="Layer_1" x="0px" y="0px" viewBox="0 0 512.001 512.001" style="enable-background:new 0 0 512.001 512.001;" xml:space="preserve" width="512px" height="512px">
<g>
	<g>
		<g>
			<path d="M170.951,71.118h27.695c2.23,0,4.272-1.203,5.402-3.127c23.21-39.503,80.736-39.434,103.906,0     c1.13,1.923,3.171,3.127,5.402,3.127h27.697c4.412,0,7.428-4.451,5.809-8.555c-32.338-82.032-149.359-82.092-181.721,0     C163.523,66.668,166.539,71.118,170.951,71.118z" />
			<path d="M209.696,299.661v-31.06c0-5.172,4.193-9.366,9.366-9.366h73.875c5.172,0,9.366,4.193,9.366,9.366v31.06     c0,4.075,3.84,7.058,7.789,6.049L512,254.152V137.897c0-26.535-21.512-48.048-48.048-48.048H48.048     C21.511,89.85,0,111.362,0,137.897v116.255l201.908,51.558C205.856,306.72,209.696,303.737,209.696,299.661z" />
			<path d="M307.003,325.832c-2.765,0.707-4.699,3.197-4.699,6.05v26.925c0,5.172-4.193,9.366-9.366,9.366h-73.875     c-5.172,0-9.366-4.193-9.366-9.366v-26.925c0-2.853-1.934-5.344-4.699-6.05L0,273.485v189.452     c0,26.537,21.511,48.048,48.048,48.048h415.905c26.535,0,48.048-21.511,48.048-48.048V273.485L307.003,325.832z" />
			<path d="M234.672,277.968c-3.448,0-6.244,2.796-6.244,6.244v58.986c0,3.449,2.796,6.244,6.244,6.244h42.656     c3.448,0,6.244-2.795,6.244-6.244v-58.986c0-3.448-2.796-6.244-6.244-6.244H234.672z" />
		</g>
	</g>
</g>
<g>
</g>
<g>
</g>
<g>
</g>
<g>
</g>
<g>
</g>
<g>
</g>
<g>
</g>
<g>
</g>
<g>
</g>
<g>
</g>
<g>
</g>
<g>
</g>
<g>
</g>
<g>
</g>
<g>
</g>
</svg>
