<?xml version="1.0" encoding="iso-8859-1"?>
<!-- Generator: Adobe Illustrator 16.0.0, SVG Export Plug-In . SVG Version: 6.00 Build 0)  -->
<!DOCTYPE svg PUBLIC "-//W3C//DTD SVG 1.1//EN" "http://www.w3.org/Graphics/SVG/1.1/DTD/svg11.dtd">
<svg xmlns="http://www.w3.org/2000/svg" xmlns:xlink="http://www.w3.org/1999/xlink" version="1.1" id="Capa_1" x="0px" y="0px" width="512px" height="512px" viewBox="0 0 345.156 345.155" style="enable-background:new 0 0 345.156 345.155;" xml:space="preserve">
<g>
	<g>
		<path d="M333.744,207.003c2.18-10.73,3.303-21.713,3.303-32.692c0-89.703-73.007-162.682-162.728-162.682    c-8.442,0-16.966,0.664-25.364,1.973C133.994,4.693,116.931,0,99.437,0C45.892,0,2.327,43.565,2.327,97.122    c0,16.417,4.194,32.582,12.106,46.921c-1.862,9.887-2.816,20.065-2.816,30.268c0,89.732,73,162.727,162.703,162.727    c9.232,0,18.48-0.792,27.548-2.329c13.522,6.839,28.643,10.447,43.87,10.447c53.545,0,97.092-43.553,97.092-97.097    C342.829,233.683,339.772,219.89,333.744,207.003z M244.632,242.444c-6.077,8.58-15.204,15.474-27.189,20.434    c-12.43,5.164-27.49,7.795-44.784,7.795c-20.692,0-37.818-3.543-50.938-10.497c-9.025-4.864-16.453-11.457-22.062-19.563    c-5.387-7.771-8.119-15.24-8.119-22.229c0-2.774,1.015-5.032,3.204-7.086c2.327-2.198,5.221-3.219,9.106-3.219    c2.915,0,5.143,0.727,6.962,2.265c2.348,1.987,4.477,5.229,6.338,9.602c3.12,7.157,6.554,13.216,10.202,18.014    c4.107,5.44,9.821,9.92,17.009,13.318c7.064,3.339,16.213,5.045,27.166,5.045c15.063,0,27.637-3.375,37.353-10.017    c10.707-7.296,16.153-16.771,16.153-28.162c0-9.085-3.158-16.646-9.367-22.494c-5.369-4.996-12.334-8.881-20.711-11.541    c-7.548-2.342-17.513-4.815-29.577-7.344c-15.489-3.309-28.607-7.215-39.01-11.623c-9.581-4.071-17.228-9.635-22.731-16.522    c-5.185-6.513-7.815-14.838-7.815-24.767c0-9.446,2.834-17.918,8.442-25.205c5.768-7.533,14.394-13.454,25.628-17.579    c11.782-4.372,25.974-6.581,42.187-6.581c12.829,0,24.058,1.459,33.317,4.323c9.056,2.816,16.621,6.548,22.428,11.106    c5.759,4.477,9.92,9.112,12.412,13.754c2.414,4.495,3.651,8.818,3.651,12.844c0,2.868-1.117,5.344-3.483,7.809    c-2.281,2.381-4.978,3.495-8.484,3.495c-2.997,0-5.362-0.567-6.474-1.537c-1.398-1.255-3.789-3.937-7.008-9.464    c-4.6-8.758-10.304-15.753-16.921-20.804c-7.218-5.482-17.816-8.146-32.456-8.146c-13.283,0-24.313,2.822-32.792,8.392    c-9.581,6.254-14.438,14.256-14.438,23.737c0,6.011,1.843,11.295,5.467,15.685c3.117,3.843,7.407,7.158,12.733,9.851    c4.717,2.381,9.599,4.261,14.457,5.608c4.309,1.192,11.559,2.988,22.245,5.446c12.415,2.676,23.692,5.627,33.528,8.776    c9.535,3.068,17.689,6.762,24.193,11.007c6.047,3.942,10.826,8.962,14.177,14.943c3.314,5.896,5.015,13.42,5.015,22.355    C253.639,224.304,250.595,233.995,244.632,242.444z" fill="#02918c"/>
	</g>
</g>
<g>
</g>
<g>
</g>
<g>
</g>
<g>
</g>
<g>
</g>
<g>
</g>
<g>
</g>
<g>
</g>
<g>
</g>
<g>
</g>
<g>
</g>
<g>
</g>
<g>
</g>
<g>
</g>
<g>
</g>
</svg>
