<svg xmlns="http://www.w3.org/2000/svg" xmlns:xlink="http://www.w3.org/1999/xlink" version="1.1" x="0px" y="0px" viewBox="0 0 77.562 84.795" enable-background="new 0 0 77.562 67.836" xml:space="preserve"><g fill="#02918c"><polygon points="1.5,48.687 1.5,45.686 76.062,45.686 76.062,48.687 1.5,48.687  "/></g><g fill="#02918c"><polygon points="32.668,66.335 32.668,56.146 45.667,56.146 45.667,66.335 32.668,66.335  "/></g><g fill="#02918c"><path d="M22.341,67.836c-0.828,0-1.499-0.673-1.499-1.501l0,0c0-0.829,0.671-1.501,1.499-1.501l0,0h32.88   c0.828,0,1.501,0.672,1.501,1.501l0,0c0,0.828-0.673,1.501-1.501,1.501l0,0H22.341L22.341,67.836z"/></g><g fill="#02918c"><path d="M4.279,57.646C1.917,57.642,0.006,55.731,0,53.369l0,0V4.279C0.006,1.915,1.917,0.006,4.279,0l0,0h69.003   c2.362,0.006,4.273,1.915,4.279,4.279l0,0v49.09c-0.006,2.362-1.917,4.272-4.279,4.277l0,0H4.279L4.279,57.646z M3.001,4.279v49.09   c0.002,0.691,0.584,1.276,1.278,1.276l0,0h69.003c0.694,0,1.276-0.583,1.278-1.276l0,0V4.279C74.559,3.585,73.975,3,73.283,3l0,0   H4.279C3.587,3,3.003,3.585,3.001,4.279L3.001,4.279z"/></g><line fill="none" stroke="#02918c" stroke-width="2" stroke-linecap="round" stroke-linejoin="round" x1="41.098" y1="16.8" x2="36.744" y2="33.999"/><polyline fill="none" stroke="#02918c" stroke-width="2" stroke-linecap="round" stroke-linejoin="round" points="45.081,18.827   51.69,25.438 45.081,32.046 "/><polyline fill="none" stroke="#02918c" stroke-width="2" stroke-linecap="round" stroke-linejoin="round" points="33.289,18.827   26.679,25.438 33.289,32.046 "/></svg>
