<?xml version="1.0" encoding="utf-8"?>
<!-- Generator: Adobe Illustrator 16.0.0, SVG Export Plug-In . SVG Version: 6.00 Build 0)  -->
<!DOCTYPE svg PUBLIC "-//W3C//DTD SVG 1.1//EN" "http://www.w3.org/Graphics/SVG/1.1/DTD/svg11.dtd">
<svg version="1.1" id="Layer_1" xmlns="http://www.w3.org/2000/svg" xmlns:xlink="http://www.w3.org/1999/xlink" x="0px" y="0px"
	 width="24px" height="24px" viewBox="0 0 24 24" enable-background="new 0 0 24 24" xml:space="preserve">
<path fill="#02918c" d="M5.256,6.328v6.968c0,0.839,0.093,0.962,0.926,1.202l-0.199,1.167c-0.444-0.101-0.873-0.146-1.259-0.299
	c-0.738-0.289-0.854-0.958-0.857-1.645c-0.009-1.971-0.004-3.94-0.004-5.909V7.424c-0.339,0.025-0.651,0.022-0.95,0.08
	C2.568,7.569,2.372,7.852,2.36,8.267C2.344,8.845,2.355,9.422,2.345,10c-0.004,0.265-0.016,0.53-0.048,0.791
	c-0.059,0.495-0.287,0.896-0.704,1.167c0.004,0.036-0.001,0.064,0.008,0.072c0.625,0.437,0.731,1.091,0.743,1.781
	c0.009,0.549,0,1.099,0.003,1.647c0.005,0.828,0.22,1.052,1.051,1.104l0.134,0.021v1.079c-0.577-0.014-1.141-0.037-1.657-0.314
	c-0.575-0.308-0.769-0.842-0.796-1.443c-0.029-0.624-0.019-1.25-0.024-1.874c-0.001-0.113,0.004-0.228-0.003-0.342
	c-0.041-0.724-0.323-1.042-1.035-1.165c-0.006-0.032-0.017-0.068-0.017-0.104C-0.001,12.117,0,11.814,0,11.521l0.051-0.046
	c0.75-0.182,0.995-0.487,1.003-1.27C1.061,9.704,1.046,9.202,1.06,8.7c0.008-0.34,0.023-0.684,0.083-1.016
	c0.134-0.736,0.669-1.181,1.525-1.297c0.253-0.034,0.509-0.055,0.764-0.059c0.595-0.008,1.191-0.003,1.825-0.003l0,0L5.256,6.328z
	 M7.671,12.854c-0.089,0.729,0.473,1.396,1.251,1.541c0.737,0.137,1.448,0.011,2.184-0.22c0.059,0.342,0.124,0.672,0.166,1.005
	c0.006,0.051-0.081,0.147-0.144,0.167c-1.079,0.338-2.168,0.449-3.251,0.034c-0.668-0.257-1.151-0.734-1.408-1.402
	c-0.407-1.062-0.412-2.13,0.069-3.17C7.24,9.287,8.99,8.892,10.3,9.502c0.792,0.367,1.174,1.054,1.31,1.874
	c0.078,0.471,0.071,0.954,0.106,1.477c-1.391-0.001-2.719-0.001-4.043-0.001l0,0L7.671,12.854z M10.288,11.827
	c0.017-0.886-0.486-1.44-1.274-1.437c-0.753,0.005-1.366,0.65-1.346,1.437H10.288z M20.47,17.675v-1.097l0.315-0.022
	c0.591-0.049,0.855-0.312,0.871-0.904c0.015-0.567,0-1.136,0.011-1.704c0.004-0.273,0.021-0.549,0.062-0.82
	c0.069-0.468,0.309-0.844,0.748-1.129c-0.778-0.493-0.803-1.246-0.811-2.005c-0.007-0.521,0.005-1.042-0.005-1.562
	c-0.015-0.707-0.275-0.965-0.985-0.997L20.48,7.422V6.33c0.617,0.015,1.227,0.033,1.767,0.382c0.502,0.326,0.66,0.841,0.684,1.396
	c0.029,0.671,0.014,1.344,0.026,2.016c0.004,0.198,0.013,0.401,0.063,0.59c0.13,0.487,0.467,0.738,0.979,0.755v1.064
	c-0.489,0.021-0.84,0.255-0.971,0.742c-0.053,0.189-0.066,0.392-0.069,0.588c-0.013,0.663,0,1.325-0.024,1.987
	c-0.038,1.051-0.59,1.636-1.636,1.757C21.031,17.639,20.759,17.65,20.47,17.675L20.47,17.675L20.47,17.675z M20.726,9.521
	l-0.252,1.101c-0.586-0.195-1.162-0.328-1.766-0.23c-0.38,0.061-0.605,0.229-0.652,0.494c-0.052,0.289,0.088,0.546,0.438,0.718
	c0.295,0.146,0.609,0.255,0.913,0.385c0.183,0.076,0.366,0.153,0.543,0.241c0.854,0.427,1.149,0.973,1.051,1.934
	c-0.067,0.674-0.553,1.17-1.407,1.358c-1.018,0.224-2.026,0.161-3.04-0.221l0.223-1.107c0.437,0.1,0.852,0.229,1.276,0.279
	c0.352,0.043,0.718,0.01,1.072-0.026c0.234-0.022,0.431-0.143,0.489-0.405c0.059-0.271-0.018-0.506-0.246-0.645
	c-0.281-0.172-0.588-0.3-0.885-0.443c-0.357-0.171-0.729-0.314-1.073-0.509c-1.011-0.57-1.001-2.338,0.124-2.876
	c0.333-0.159,0.71-0.255,1.078-0.307c0.713-0.102,1.407,0.045,2.116,0.26H20.726z M16.143,9.47l-0.265,1.153
	c-0.586-0.201-1.154-0.326-1.751-0.234c-0.399,0.061-0.623,0.23-0.67,0.51c-0.049,0.284,0.096,0.534,0.456,0.709
	c0.313,0.152,0.646,0.269,0.967,0.404c0.156,0.066,0.313,0.135,0.465,0.209c0.885,0.44,1.193,1.035,1.053,2.011
	c-0.098,0.675-0.684,1.192-1.55,1.328c-0.879,0.138-1.75,0.115-2.609-0.159c-0.21-0.067-0.298-0.149-0.234-0.38
	c0.077-0.27,0.123-0.549,0.183-0.828c0.433,0.099,0.849,0.229,1.274,0.279c0.351,0.041,0.716,0.009,1.072-0.027
	c0.249-0.023,0.442-0.164,0.496-0.436c0.05-0.263-0.041-0.489-0.256-0.614c-0.326-0.189-0.677-0.332-1.017-0.495
	c-0.315-0.151-0.641-0.283-0.942-0.455c-1.013-0.581-0.996-2.335,0.145-2.901c0.508-0.253,1.045-0.347,1.597-0.304
	C15.078,9.281,15.594,9.388,16.143,9.47L16.143,9.47L16.143,9.47z"/>
</svg>
