<?xml version="1.0" encoding="iso-8859-1"?>
<!-- Generator: Adobe Illustrator 16.0.0, SVG Export Plug-In . SVG Version: 6.00 Build 0)  -->
<!DOCTYPE svg PUBLIC "-//W3C//DTD SVG 1.1//EN" "http://www.w3.org/Graphics/SVG/1.1/DTD/svg11.dtd">
<svg xmlns="http://www.w3.org/2000/svg" xmlns:xlink="http://www.w3.org/1999/xlink" version="1.1" id="Capa_1" x="0px" y="0px" width="512px" height="512px" viewBox="0 0 32.851 32.851" style="enable-background:new 0 0 32.851 32.851;" xml:space="preserve">
<g>
	<path d="M32.851,16.003c-0.021-3.994-3.172-7.481-8.032-8.892c-0.543-0.635-1.174-1.23-1.906-1.771   c-2.512-1.857-5.836-2.891-9.449-2.907C6.067,2.433,0.027,7.012,0,12.64c-0.016,2.933,1.555,5.658,4.343,7.611l-1.3,6.104   c-0.127,0.594,0.117,1.203,0.617,1.549c0.256,0.177,0.554,0.265,0.851,0.265c0.284,0,0.567-0.08,0.815-0.242l6.92-4.487   c2.246,1.426,5.058,2.211,8.028,2.211c0.159-0.002,0.321-0.004,0.493-0.013l6.996,4.539c0.248,0.162,0.531,0.242,0.814,0.242   c0.297,0,0.596-0.088,0.852-0.265c0.5-0.346,0.744-0.955,0.615-1.549l-1.178-5.543C31.425,21.243,32.864,18.719,32.851,16.003z    M6.783,18.254c-2.416-1.416-3.795-3.457-3.783-5.6c0.021-3.981,4.714-7.223,10.539-7.223c2.891,0.016,5.585,0.838,7.591,2.319   c1.863,1.378,2.885,3.155,2.875,5.009c-0.021,3.982-4.715,7.223-10.537,7.223c-0.279-0.002-0.555-0.02-0.828-0.033   c-0.316-0.02-0.636,0.064-0.904,0.238l-5.005,3.248l0.761-3.576C7.625,19.229,7.341,18.58,6.783,18.254z M26.427,21.069   c-0.561,0.326-0.846,0.975-0.709,1.604l0.642,3.013l-4.367-2.832C21.724,22.678,21.31,22.596,21,22.62   c-0.223,0.012-0.443,0.025-0.666,0.027c-0.854,0.016-1.691-0.062-2.494-0.209c5.299-1.367,9.146-5.179,9.166-9.662   c0.004-0.492-0.055-0.976-0.141-1.453c1.84,1.22,2.979,2.91,2.985,4.695C29.861,17.946,28.613,19.786,26.427,21.069z" fill="#02918c"/>
</g>
<g>
</g>
<g>
</g>
<g>
</g>
<g>
</g>
<g>
</g>
<g>
</g>
<g>
</g>
<g>
</g>
<g>
</g>
<g>
</g>
<g>
</g>
<g>
</g>
<g>
</g>
<g>
</g>
<g>
</g>
</svg>
