<svg xmlns="http://www.w3.org/2000/svg" xmlns:xlink="http://www.w3.org/1999/xlink" version="1.1" x="0px" y="0px" viewBox="0 0 100 125" enable-background="new 0 0 100 100" xml:space="preserve"><g><path fill="#02918c" d="M93,74H83V60h10V74z M84,73h8V61h-8V73z"/></g><g><rect x="87.5" y="75.5" fill="#02918c" width="2" height="2"/></g><g><rect x="86" y="58" fill="#02918c" width="4" height="1"/></g><g><path fill="#02918c" d="M95,78.196C95,79.192,94.192,80,93.195,80H82.805C81.808,80,81,79.192,81,78.196V57.804   C81,56.808,81.808,56,82.805,56h10.391C94.192,56,95,56.808,95,57.804V78.196z M94,57.804C94,57.359,93.64,57,93.195,57H82.805   C82.36,57,82,57.359,82,57.804v20.393C82,78.641,82.36,79,82.805,79h10.391C93.64,79,94,78.641,94,78.196V57.804z"/></g><rect x="72" y="74" fill="#02918c" width="3" height="3"/><polygon fill="#02918c" points="79,71 63,71 63,44 85,44 85,53 84,53 84,45 64,45 64,70 79,70 "/><path fill="#02918c" d="M79,80H61.282C60.231,80,59,78.969,59,78.044V41.521C59,40.583,60.183,40,61.282,40h26.087  C88.396,40,89,40.477,89,41.521V53h-1V41.521C88,41.182,87.843,41,87.369,41H61.282C60.5,41,60,41.379,60,41.521v36.522  C60,78.486,60.842,79,61.282,79H79V80z"/><polygon fill="#02918c" points="56,61 11,61 11,26 67,26 67,37 66,37 66,27 12,27 12,60 56,60 "/><path fill="#02918c" d="M56,71H9.108C7.321,71,5,69.288,5,67.608V23.261C5,21.454,7.474,20,9.108,20h60  C70.852,20,72,21.585,72,23.261V37h-1V23.261C71,22.12,70.315,21,69.108,21h-60C7.97,21,6,22.097,6,23.261v44.348  C6,68.726,7.89,70,9.108,70H56V71z"/><path fill="#02918c" d="M56.065,80H23.457c-1.033,0-1.805-1.056-1.805-2s0.771-2,1.805-2h7.939c0.845,0,1.228-1.874,1.507-3.242  C33.218,71.217,33.466,70,34.4,70h12.015c0.955,0,1.311,1.354,1.762,3.066C48.427,74.019,48.948,76,49.42,76h6.646  c1.032,0,1.804,1.056,1.804,2S57.098,80,56.065,80z M23.457,77c-0.434,0-0.805,0.55-0.805,1s0.371,1,0.805,1h32.608  c0.433,0,0.804-0.55,0.804-1s-0.371-1-0.804-1h-6.562c-1.326,0-1.796-1.787-2.294-3.679c-0.213-0.811-0.569-2.167-0.846-2.333  L34.4,71c-0.147,0.146-0.37,1.236-0.518,1.958C33.516,74.759,33.058,77,31.396,77H23.457z"/></svg>
