<?xml version="1.0" encoding="iso-8859-1"?>
<!-- Generator: Adobe Illustrator 19.0.0, SVG Export Plug-In . SVG Version: 6.00 Build 0)  -->
<svg xmlns="http://www.w3.org/2000/svg" xmlns:xlink="http://www.w3.org/1999/xlink" version="1.1" id="Capa_1" x="0px" y="0px" viewBox="0 0 502.707 502.707" style="enable-background:new 0 0 502.707 502.707;" xml:space="preserve" width="512px" height="512px">
<g>
	<g>
		<g>
			<path d="M469.423,202.01h-44.824V68.272c0-25.324-20.773-46.054-46.075-46.054H46.054C20.73,22.218,0,42.947,0,68.272v194.396     c0,25.367,20.73,46.054,46.054,46.054h42.494v133.89c0,20.881,17.062,37.878,37.878,37.878h84.255     c20.837,0,37.9-17.019,37.9-37.878V308.699h30.458v66.999c0,18.292,14.97,33.284,33.327,33.284h157.057     c18.335,0,33.284-14.949,33.284-33.284V235.272C502.707,216.959,487.694,202.01,469.423,202.01z M459.652,220.281     c5.716,0,10.332,4.595,10.332,10.289c0,5.673-4.616,10.289-10.332,10.289c-5.695,0-10.289-4.595-10.289-10.289     C449.363,224.897,453.957,220.281,459.652,220.281z M477.512,380.422H304.277V256.433h173.235V380.422z M430.143,220.302     c5.716,0,10.311,4.595,10.311,10.268c0,5.673-4.595,10.268-10.311,10.268c-5.652,0-10.268-4.595-10.268-10.268     C419.897,224.897,424.513,220.302,430.143,220.302z M368.17,45.708c7.464,0,13.482,6.018,13.482,13.46s-6.018,13.46-13.482,13.46     c-7.42,0-13.439-6.018-13.439-13.46C354.732,51.727,360.771,45.708,368.17,45.708z M329.623,45.73     c7.42,0,13.395,6.018,13.395,13.439s-5.975,13.439-13.395,13.439c-7.463,0-13.439-6.018-13.439-13.439     S322.224,45.73,329.623,45.73z M168.015,236.998c0-5.673,4.595-10.268,10.268-10.268c5.673,0,10.289,4.595,10.289,10.268     c0,5.673-4.616,10.289-10.289,10.289C172.609,247.287,168.015,242.671,168.015,236.998z M197.459,236.998     c0-5.695,4.616-10.289,10.311-10.289s10.289,4.595,10.289,10.289c0,5.673-4.595,10.289-10.289,10.289     C202.075,247.287,197.459,242.671,197.459,236.998z M219.914,447.96H117.28V266.378h102.655L219.914,447.96L219.914,447.96z      M248.582,269.182v-24.569c0-20.794-17.062-37.857-37.878-37.857h-84.277c-20.816,0-37.878,17.062-37.878,37.857v24.569H34.88     V95.364h354.775V202.01h-77.31c-18.357,0-33.327,14.949-33.327,33.262v33.909H248.582z" fill="#02918c"/>
		</g>
	</g>
	<g>
	</g>
	<g>
	</g>
	<g>
	</g>
	<g>
	</g>
	<g>
	</g>
	<g>
	</g>
	<g>
	</g>
	<g>
	</g>
	<g>
	</g>
	<g>
	</g>
	<g>
	</g>
	<g>
	</g>
	<g>
	</g>
	<g>
	</g>
	<g>
	</g>
</g>
<g>
</g>
<g>
</g>
<g>
</g>
<g>
</g>
<g>
</g>
<g>
</g>
<g>
</g>
<g>
</g>
<g>
</g>
<g>
</g>
<g>
</g>
<g>
</g>
<g>
</g>
<g>
</g>
<g>
</g>
</svg>
