<?xml version="1.0" encoding="utf-8"?>
<!-- Generator: Adobe Illustrator 16.0.0, SVG Export Plug-In . SVG Version: 6.00 Build 0)  -->
<!DOCTYPE svg PUBLIC "-//W3C//DTD SVG 1.1//EN" "http://www.w3.org/Graphics/SVG/1.1/DTD/svg11.dtd">
<svg version="1.1" id="Layer_1" xmlns="http://www.w3.org/2000/svg" xmlns:xlink="http://www.w3.org/1999/xlink" x="0px" y="0px"
	 width="24px" height="24px" viewBox="0 0 24 24" enable-background="new 0 0 24 24" xml:space="preserve">
<path fill="#02918c" d="M23.546,10.932L13.068,0.453c-0.604-0.604-1.582-0.604-2.186,0L8.706,2.629l2.76,2.761c0.642-0.218,1.377-0.072,1.888,0.438
	c0.514,0.514,0.659,1.257,0.437,1.901l2.66,2.66c0.644-0.223,1.386-0.079,1.901,0.437c0.717,0.717,0.717,1.882,0,2.6
	c-0.719,0.718-1.883,0.718-2.602,0c-0.54-0.54-0.673-1.334-0.401-2l-2.481-2.481v6.528c0.175,0.087,0.341,0.203,0.486,0.348
	c0.719,0.719,0.719,1.882,0,2.602c-0.717,0.719-1.883,0.719-2.6,0c-0.718-0.72-0.718-1.883,0-2.602
	c0.178-0.177,0.383-0.312,0.603-0.4V8.831c-0.219-0.09-0.425-0.223-0.603-0.401c-0.544-0.545-0.675-1.344-0.396-2.011L7.638,3.697
	l-7.185,7.185c-0.604,0.604-0.604,1.584,0,2.187l10.479,10.479c0.604,0.604,1.581,0.604,2.186,0l10.43-10.43
	c0.603-0.604,0.603-1.583,0-2.188L23.546,10.932z"/>
</svg>
