<svg xmlns="http://www.w3.org/2000/svg" xmlns:xlink="http://www.w3.org/1999/xlink" version="1.1" x="0px" y="0px" viewBox="0 0 100 125" enable-background="new 0 0 100 100" xml:space="preserve"><path fill="#02918c" d="M75.417,46.372h7.301v7.302h-7.301V46.372z M90.021,60.881v-7.208h-7.303v7.208H90.021z M82.718,46.372h7.303v-7.256h-7.303  V46.372z M53.652,46.372h21.765v-7.256h-7.164v-7.3h-7.301V24.56h-7.301V46.372z M53.652,17.256h-7.257v7.304h7.257V17.256z   M60.953,10.002h-7.301v7.253h7.301V10.002z M39.093,10.002v7.253h7.302v-7.253H39.093z M46.395,46.372V24.56h-7.302v7.256h-7.254  v7.3h-7.302v7.256H46.395z M46.395,53.673h7.257v-7.302h-7.257V53.673z M53.652,53.673V75.44h7.301v-7.302h7.301v-7.257h7.164  v-7.208H53.652z M60.953,89.998v-7.303h-7.301v7.303H60.953z M39.093,89.998h7.302v-7.303h-7.302V89.998z M46.395,82.695h7.257  V75.44h-7.257V82.695z M46.395,53.673H24.537v7.208h7.302v7.257h7.254v7.302h7.302V53.673z M17.28,46.372v7.302h7.256v-7.302H17.28z   M9.979,60.881h7.301v-7.208H9.979V60.881z M9.979,39.116v7.256h7.301v-7.256H9.979z"/></svg>
